<?xml version="1.0" standalone="no"?><!DOCTYPE svg PUBLIC "-//W3C//DTD SVG 1.1//EN" "http://www.w3.org/Graphics/SVG/1.1/DTD/svg11.dtd"><svg t="1753353103202" class="icon" viewBox="0 0 1024 1024" version="1.1" xmlns="http://www.w3.org/2000/svg" p-id="17965" xmlns:xlink="http://www.w3.org/1999/xlink" width="200" height="200"><path d="M980.862 219.1H659.592v86.276h321.27c23.824 0 43.138-19.314 43.138-43.138 0-23.826-19.314-43.138-43.138-43.138z" fill="#76C9D2" p-id="17966"></path><path d="M980.862 219.1H659.592v86.276h321.27c23.824 0 43.138-19.314 43.138-43.138 0-23.826-19.314-43.138-43.138-43.138z" opacity=".2" p-id="17967"></path><path d="M219.19 1007.596h-54.42a15.846 15.846 0 0 1-15.846-15.846v-41.654c0-67.624 37.288-128.982 97.314-160.126L278.6 852.34c-36.646 19.014-59.41 56.472-59.41 97.756v57.5z" fill="#C98A4C" p-id="17968"></path><path d="M148.924 950.094v41.654a15.846 15.846 0 0 0 15.846 15.846h54.42v-57.502H148.924v0.002z" fill="#FFD4B8" p-id="17969"></path><path d="M650.11 1007.596h54.422a15.846 15.846 0 0 0 15.846-15.846v-41.654c0-67.624-37.288-128.982-97.316-160.126L590.7 852.34c36.646 19.014 59.41 56.472 59.41 97.756v57.5z" fill="#C98A4C" p-id="17970"></path><path d="M720.378 950.094v41.654a15.846 15.846 0 0 1-15.846 15.846h-54.422v-57.502h70.268v0.002z" fill="#FFD4B8" p-id="17971"></path><path d="M434.652 647.566c-119.244 0-215.91 96.666-215.91 215.908v144.12H650.56v-144.12c0-119.242-96.666-215.908-215.908-215.908z" fill="#FBAB5F" p-id="17972"></path><path d="M434.64 883.86m-58.14 0a58.14 58.14 0 1 0 116.28 0 58.14 58.14 0 1 0-116.28 0Z" fill="#FFFFFF" p-id="17973"></path><path d="M434.652 647.566c-81.064 0-151.682 44.684-188.6 110.756 55.094 33.154 119.616 52.236 188.6 52.236s133.506-19.082 188.6-52.236c-36.92-66.072-107.536-110.756-188.6-110.756z" opacity=".1" p-id="17974"></path><path d="M68.34 402.74m-68.34 0a68.34 68.34 0 1 0 136.68 0 68.34 68.34 0 1 0-136.68 0Z" fill="#FFD4B8" p-id="17975"></path><path d="M800.96 402.74m-68.34 0a68.34 68.34 0 1 0 136.68 0 68.34 68.34 0 1 0-136.68 0Z" fill="#FFD4B8" p-id="17976"></path><path d="M434.64 402.26m-366.3 0a366.3 366.3 0 1 0 732.6 0 366.3 366.3 0 1 0-732.6 0Z" fill="#FFD4B8" p-id="17977"></path><path d="M248.906 417.732a15 15 0 0 1-15-15v-36.494a15 15 0 0 1 30 0v36.494a15 15 0 0 1-15 15zM620.396 417.732a15 15 0 0 1-15-15v-36.494c0-8.284 6.714-15 15-15s15 6.716 15 15v36.494a15 15 0 0 1-15 15zM373.126 452.784a9.1 9.1 0 0 0-9.008 10.37c5.038 35.594 35.628 62.97 72.612 62.97s67.576-27.376 72.612-62.97a9.1 9.1 0 0 0-9.008-10.37h-127.208z" fill="#4A5058" p-id="17978"></path><path d="M434.65 35.946c-202.306 0-366.306 164-366.306 366.306 44.51 0 91.014-37.056 112.164-112.33h188.604l10.428 76.65c1.346 9.89 14.008 13.166 19.982 5.172l61.14-81.822h228.188c21.156 75.236 67.608 112.33 112.106 112.33 0-202.306-164-366.306-366.306-366.306z" fill="#9B7E73" p-id="17979"></path><path d="M122.63 356.01c0-7.896 0.278-15.728 0.77-23.498h670.896a363.63 363.63 0 0 0-15.338-55.556H131.206c14.808-67.282 48.1-127.63 94.298-175.44-94.986 66.182-157.158 176.19-157.158 300.736 0 202.306 164 366.306 366.306 366.306 103.426 0 196.826-42.878 263.434-111.81-59.304 41.32-131.388 65.57-209.148 65.57-202.306-0.002-366.308-164.002-366.308-366.308z" fill="#513130" opacity=".1" p-id="17980"></path><path d="M803.07 287.274C754.144 130.332 607.704 16.404 434.65 16.404S115.158 130.332 66.23 287.274c-2.8 8.98 3.956 18.1 13.362 18.1h710.116c9.406 0 16.162-9.12 13.362-18.1z m-453.968-38.736c0-47.248 38.302-85.55 85.548-85.55 47.248 0 85.548 38.302 85.548 85.55h-171.096z" fill="#76C9D2" p-id="17981"></path><path d="M434.65 16.404c-5.024 0-10.022 0.106-15 0.296v147.624c4.872-0.862 9.88-1.338 15-1.338s10.128 0.476 15 1.338V16.702a388.96 388.96 0 0 0-15-0.298z" opacity=".1" p-id="17982"></path><path d="M461.62 17.352a390.97 390.97 0 0 0-26.97-0.946c-173.054 0-319.492 113.928-368.42 270.87-2.8 8.98 3.956 18.1 13.362 18.1h53.94c-9.406 0-16.162-9.12-13.362-18.1C166.534 138.556 300.464 28.482 461.62 17.352z" opacity=".1" p-id="17983"></path><path d="M349.1 248.54h199.22v56.838h-199.22z" opacity=".2" p-id="17984"></path><path d="M522.396 248.538h51.864a7.474 7.474 0 0 1 7.474 7.474v41.89a7.474 7.474 0 0 1-7.474 7.474h-51.864a7.474 7.474 0 0 1-7.474-7.474v-41.89a7.472 7.472 0 0 1 7.474-7.474z" fill="#FFFFFF" p-id="17985"></path></svg>