<?xml version="1.0" standalone="no"?><!DOCTYPE svg PUBLIC "-//W3C//DTD SVG 1.1//EN" "http://www.w3.org/Graphics/SVG/1.1/DTD/svg11.dtd"><svg t="1753353080827" class="icon" viewBox="0 0 1024 1024" version="1.1" xmlns="http://www.w3.org/2000/svg" p-id="16731" xmlns:xlink="http://www.w3.org/1999/xlink" width="200" height="200"><path d="M79.435845 22.675956L47.131908 114.625776c-6.155988 17.523966 7.479985 35.70993 26.023949 34.623932 85.839832-5.02599 202.763604 45.395911 223.791563 104.825796C302.11941 201.001607 265.339482 40.84792 120.673764 1.231998c-17.279966-4.731991-35.299931 4.541991-41.237919 21.443958zM944.562155 22.675956l32.303937 91.94782c6.155988 17.523966-7.479985 35.70993-26.023949 34.623933-85.839832-5.02599-202.763604 45.395911-223.791563 104.825795C721.87859 201.001607 758.658518 40.84792 903.324236 1.231998c17.279966-4.731991 35.299931 4.541991 41.237919 21.443958z" fill="#4A5058" p-id="16732"></path><path d="M309.465396 1023.998h-51.155901a14.895971 14.895971 0 0 1-14.89597-14.895971v-39.155923c0-63.567876 35.051932-121.243763 91.475821-150.519706l30.419941 58.627885c-34.445933 17.873965-55.845891 53.083896-55.845891 91.889821l0.002 54.053894z" fill="#B86EA3" p-id="16733"></path><path d="M243.413525 969.946106v39.155923a14.897971 14.897971 0 0 0 14.89597 14.895971h51.155901v-54.051894h-66.051871z" fill="#FFD4B8" p-id="16734"></path><path d="M714.532604 1023.998h51.155901a14.895971 14.895971 0 0 0 14.89597-14.895971v-39.155923c0-63.567876-35.051932-121.243763-91.475821-150.519706l-30.419941 58.627885c34.445933 17.873965 55.845891 53.083896 55.845891 91.889821V1023.998h-0.002z" fill="#B86EA3" p-id="16735"></path><path d="M780.584475 969.946106v39.155923a14.897971 14.897971 0 0 1-14.89597 14.895971h-51.155901v-54.051894h66.051871z" fill="#FFD4B8" p-id="16736"></path><path d="M511.999 685.568661c-112.089781 0-202.955604 90.865823-202.955604 202.955604V1023.998h405.911208v-135.473735c0-112.089781-90.865823-202.955604-202.955604-202.955604z" fill="#DF85C6" p-id="16737"></path><path d="M365.311287 751.802532c-1.133998 0-2.257996 0.042-3.381994 0.085999-32.853936 36.06193-52.885897 84.009836-52.885897 136.635734v16.563967c15.16997 12.885975 34.803932 20.67596 56.267891 20.67596 48.037906 0 86.98183-38.941924 86.98183-86.97983-0.002-48.039906-38.943924-86.98183-86.98183-86.98183zM658.686714 882.966275c-48.037906 0-86.98183 38.941924-86.981831 86.981831 0 20.43396 7.063986 39.205923 18.859964 54.051894h124.389757v-120.355765c-15.16997-12.887975-34.803932-20.67796-56.26789-20.67796z" fill="#FFFFFF" opacity=".3" p-id="16738"></path><path d="M511.999 685.568661c-76.201851 0-142.581722 42.001918-177.283654 104.111797 51.787899 31.165939 112.43778 49.101904 177.283654 49.101904s125.497755-17.937965 177.283654-49.103904c-34.701932-62.107879-101.081803-104.109797-177.283654-104.109797z" opacity=".1" p-id="16739"></path><path d="M167.659673 455.419111m-64.239875 0a64.239875 64.239875 0 1 0 128.479749 0 64.239875 64.239875 0 1 0-128.479749 0Z" fill="#FFD4B8" p-id="16740"></path><path d="M856.338327 455.419111m-64.239874 0a64.239875 64.239875 0 1 0 128.479749 0 64.239875 64.239875 0 1 0-128.479749 0Z" fill="#FFD4B8" p-id="16741"></path><path d="M511.999 454.979111m-344.319327 0a344.319328 344.319328 0 1 0 688.638655 0 344.319328 344.319328 0 1 0-688.638655 0Z" fill="#FFD4B8" p-id="16742"></path><path d="M511.999 110.643784c-158.419691 0-291.82943 106.991791-331.967352 252.651506 71.369861 30.54594 239.357533 20.31196 331.967352-116.613772 90.191824 133.34774 258.125496 146.539714 332.59335 118.925768C805.234427 218.767573 671.254689 110.643784 511.999 110.643784z" fill="#4A5058" p-id="16743"></path><path d="M563.0269 755.834524c-190.167629 0-344.329327-154.161699-344.329327-344.329328 0-92.945818 36.841928-177.277654 96.699811-239.227532-89.287826 62.211878-147.729711 165.619677-147.729711 282.693447 0 190.167629 154.161699 344.329327 344.329327 344.329328 97.22181 0 185.017639-40.305921 247.629516-105.101795-55.743891 38.841924-123.503759 61.63588-196.599616 61.63588z" fill="#513130" opacity=".1" p-id="16744"></path><path d="M511.999 562.134902c-17.447966 0-34.303933-7.311986-46.25191-20.061961a15.001971 15.001971 0 0 1 21.895958-20.51196c6.385988 6.819987 15.037971 10.573979 24.357952 10.57398s17.969965-3.755993 24.357952-10.57398a14.999971 14.999971 0 0 1 21.895958 20.51196c-11.951977 12.749975-28.807944 20.061961-46.25591 20.061961zM373.029271 469.567083a14.999971 14.999971 0 0 1-14.99997-14.999971c0-8.337984-6.783987-15.12197-15.121971-15.12197s-15.12197 6.783987-15.12197 15.12197c0 8.283984-6.713987 14.999971-14.999971 14.999971s-14.999971-6.715987-14.999971-14.999971c0-24.879951 20.24196-45.121912 45.121912-45.121912s45.121912 20.24196 45.121912 45.121912a14.999971 14.999971 0 0 1-14.999971 14.999971zM711.212611 469.567083a14.999971 14.999971 0 0 1-14.999971-14.999971c0-8.337984-6.783987-15.12197-15.12197-15.12197-8.339984 0-15.12197 6.783987-15.121971 15.12197a14.999971 14.999971 0 0 1-29.999941 0c0-24.879951 20.24196-45.121912 45.121912-45.121912 24.877951 0 45.121912 20.24196 45.121912 45.121912a14.999971 14.999971 0 0 1-14.999971 14.999971z" fill="#4A5058" p-id="16745"></path><path d="M330.915354 193.095623l-57.129889 57.129888c-15.989969 15.987969-41.911918 15.987969-57.901887 0-15.987969-15.987969-15.987969-41.911918 0-57.901887l57.129889-57.129888c15.989969-15.989969 41.911918-15.989969 57.901887 0 15.987969 15.987969 15.987969 41.911918 0 57.901887zM693.084646 193.095623l57.129889 57.129888c15.987969 15.987969 41.911918 15.987969 57.901887 0 15.989969-15.987969 15.989969-41.911918 0-57.901887l-57.129889-57.129888c-15.987969-15.989969-41.911918-15.989969-57.901887 0-15.989969 15.987969-15.989969 41.911918 0 57.901887z" fill="#81D4AE" p-id="16746"></path></svg>