<?xml version="1.0" standalone="no"?><!DOCTYPE svg PUBLIC "-//W3C//DTD SVG 1.1//EN" "http://www.w3.org/Graphics/SVG/1.1/DTD/svg11.dtd"><svg t="1753097320630" class="icon" viewBox="0 0 1024 1024" version="1.1" xmlns="http://www.w3.org/2000/svg" p-id="4475" xmlns:xlink="http://www.w3.org/1999/xlink" width="200" height="200"><path d="M415.92383 96a96 96 0 1 1 192 0 96 96 0 1 1-192 0z m80 608v256c0 35.4-28.6 64-64 64s-64-28.6-64-64V513.8l-57.2 95.2c-18.2 30.2-57.6 40-87.8 21.8s-40-57.6-21.8-87.8l116.6-194c34.8-57.8 97.2-93.2 164.6-93.2h59.4c67.4 0 129.8 35.4 164.6 93.2l116.6 194c18.2 30.2 8.4 69.6-21.8 87.8s-69.6 8.4-87.8-21.8L655.92383 513.8V960c0 35.4-28.6 64-64 64s-64-28.6-64-64V704h-32z" p-id="4476"></path></svg>